<?xml version="1.0" encoding="UTF-8"?>
<svg version="1.1" xmlns="http://www.w3.org/2000/svg" width="512" height="512">
<path d="M0 0 C2.17041428 -0.00956867 4.33982291 -0.04055875 6.51000977 -0.07226562 C19.75918869 -0.17435585 32.52560023 1.58351666 44.96508789 6.36523438 C46.15158936 6.81636597 46.15158936 6.81636597 47.36206055 7.27661133 C65.92390684 14.61584063 82.65531227 27.78839059 93.34008789 44.80273438 C95.5064959 48.21467942 97.79633304 50.59523869 100.90258789 53.17773438 C110.39882416 61.26948528 114.70107237 73.09969122 116.40258789 85.24023438 C117.18005962 99.33028068 115.42016619 112.64383168 112.96508789 126.49023438 C112.63485289 128.41576598 112.30607084 130.34154734 111.97875977 132.26757812 C111.38108764 135.77996657 110.77387519 139.29044628 110.15869141 142.79980469 C108.34239144 151.00701245 108.34239144 151.00701245 110.27758789 158.86523438 C114.84951602 169.41093619 113.98212267 180.48866072 110.40258789 191.24023438 C107.54930503 197.0558962 103.78967141 201.64884536 98.40258789 205.24023438 C95.02758789 206.05273438 95.02758789 206.05273438 92.40258789 206.24023438 C92.23823242 207.06031982 92.23823242 207.06031982 92.07055664 207.89697266 C90.90037328 213.47080334 89.36765045 218.77181304 87.40258789 224.11523438 C87.10715088 224.92025391 86.81171387 225.72527344 86.50732422 226.5546875 C82.57933561 236.86952766 77.53203522 247.04606338 71.40258789 256.24023438 C71.11472859 258.19713796 71.11472859 258.19713796 71.17553711 260.34448242 C71.17568817 261.16510666 71.17583923 261.9857309 71.17599487 262.83122253 C71.18631744 263.71256363 71.19664001 264.59390472 71.20727539 265.50195312 C71.21010529 266.40774612 71.21293518 267.31353912 71.21585083 268.2467804 C71.22704825 271.14056595 71.252152 274.03404232 71.27758789 276.92773438 C71.28761826 278.88931845 71.29674401 280.85090737 71.30493164 282.8125 C71.32698616 287.62186398 71.361513 292.43099675 71.40258789 297.24023438 C90.42384524 306.24594576 109.45571108 315.22499672 128.55493164 324.06445312 C133.30305523 326.26289939 138.04455652 328.47486961 142.78149414 330.69726562 C144.67039421 331.58260716 146.55934417 332.46784218 148.44830322 333.35305786 C149.70456679 333.94219866 150.96055075 334.53193609 152.21624756 335.12228394 C159.18769943 338.39837292 166.17947267 341.60551619 173.25024414 344.66210938 C185.84068399 350.11857329 197.81753304 355.31558028 208.40258789 364.24023438 C209.14379883 364.80613281 209.88500977 365.37203125 210.64868164 365.95507812 C229.01158341 380.59528636 236.96623588 402.90394634 240.40258789 425.24023438 C240.40258789 453.95023437 240.40258789 482.66023438 240.40258789 512.24023438 C84.64258789 512.24023438 -71.11741211 512.24023438 -231.59741211 512.24023438 C-231.59741211 399.07801672 -231.59741211 399.07801672 -210.59741211 374.24023438 C-209.5784082 373.00273438 -209.5784082 373.00273438 -208.53881836 371.74023438 C-194.85219131 355.73590755 -175.62066452 348.131984 -156.81170654 339.79122925 C-147.32761387 335.58434471 -137.89529298 331.2697685 -128.47241211 326.92773438 C-125.34749078 325.48876141 -122.22244186 324.05006561 -119.09741211 322.61132812 C-118.31897949 322.25285294 -117.54054688 321.89437775 -116.73852539 321.52503967 C-107.99033716 317.49773166 -99.23193589 313.49281324 -90.47241211 309.49023438 C-89.74519958 309.1578476 -89.01798706 308.82546082 -88.26873779 308.48300171 C-87.56235168 308.16014191 -86.85596558 307.8372821 -86.12817383 307.50463867 C-85.44119415 307.19064621 -84.75421448 306.87665375 -84.04641724 306.55314636 C-82.72203148 305.948257 -81.39739395 305.34391852 -80.07247925 304.7401886 C-77.12337973 303.39634488 -74.17807265 302.04537992 -71.23901367 300.6796875 C-70.24611328 300.22013672 -69.25321289 299.76058594 -68.23022461 299.28710938 C-67.3757373 298.8884668 -66.52125 298.48982422 -65.64086914 298.07910156 C-63.59741211 297.24023438 -63.59741211 297.24023438 -61.59741211 297.24023438 C-61.49149567 291.85357163 -61.45442805 286.47189463 -61.4753418 281.08422852 C-61.47342062 279.26022821 -61.45416649 277.43614599 -61.41577148 275.61254883 C-61.14357418 261.88548746 -63.68263401 253.29052807 -71.44281006 241.990448 C-73.81146838 238.39989656 -75.3965105 234.47461492 -76.97241211 230.49023438 C-77.29274414 229.70656494 -77.61307617 228.92289551 -77.94311523 228.11547852 C-84.59741211 211.55258123 -84.59741211 211.55258123 -84.59741211 206.24023438 C-85.33991211 206.13582031 -86.08241211 206.03140625 -86.84741211 205.92382812 C-92.29663774 204.5692621 -96.131925 200.47528632 -99.15209961 195.86914062 C-105.3263805 184.15992747 -105.72072951 173.58032435 -102.44897461 160.93945312 C-101.59741211 158.24023437 -101.59741211 158.24023437 -100.43334961 156.32226562 C-98.55449848 151.64269715 -100.81740564 146.10053851 -102.0065918 141.39477539 C-109.05506107 113.48427023 -109.19451109 86.59172416 -94.83178711 61.10742188 C-91.67826592 56.00780878 -88.15463206 51.28505254 -84.40209961 46.61523438 C-82.36555206 43.93510253 -80.58953968 41.14375449 -78.78491211 38.30273438 C-64.5151616 16.80261315 -40.61295134 6.50814593 -16.31396484 0.69384766 C-10.93418308 -0.20447485 -5.44276931 0.01443865 0 0 Z " fill="#CCD5DF" transform="translate(251.597412109375,-0.240234375)"/>
<path d="M0 0 C2.17041428 -0.00956867 4.33982291 -0.04055875 6.51000977 -0.07226562 C19.75918869 -0.17435585 32.52560023 1.58351666 44.96508789 6.36523438 C45.75608887 6.66598877 46.54708984 6.96674316 47.36206055 7.27661133 C65.92390684 14.61584063 82.65531227 27.78839059 93.34008789 44.80273438 C95.5064959 48.21467942 97.79633304 50.59523869 100.90258789 53.17773438 C110.39882416 61.26948528 114.70107237 73.09969122 116.40258789 85.24023438 C117.18005962 99.33028068 115.42016619 112.64383168 112.96508789 126.49023438 C112.63485289 128.41576598 112.30607084 130.34154734 111.97875977 132.26757812 C111.38108764 135.77996657 110.77387519 139.29044628 110.15869141 142.79980469 C108.34239144 151.00701245 108.34239144 151.00701245 110.27758789 158.86523438 C114.84951602 169.41093619 113.98212267 180.48866072 110.40258789 191.24023438 C107.54930503 197.0558962 103.78967141 201.64884536 98.40258789 205.24023438 C95.02758789 206.05273438 95.02758789 206.05273438 92.40258789 206.24023438 C92.29301758 206.78695801 92.18344727 207.33368164 92.07055664 207.89697266 C90.90037328 213.47080334 89.36765045 218.77181304 87.40258789 224.11523438 C87.10715088 224.92025391 86.81171387 225.72527344 86.50732422 226.5546875 C82.57933561 236.86952766 77.53203522 247.04606338 71.40258789 256.24023438 C71.29298818 259.17958369 71.294202 262.03232121 71.37524414 264.96679688 C71.38905985 266.738913 71.40003551 268.51105311 71.40844727 270.28320312 C71.42876541 273.06948211 71.46465665 275.85112896 71.54980469 278.63623047 C71.98699906 294.11870385 71.98699906 294.11870385 68.06274414 299.37329102 C65.27909248 301.65161075 62.51054292 303.44072498 59.40258789 305.24023438 C57.67106824 306.60719932 55.9592361 307.99986437 54.27758789 309.42773438 C53.37782227 310.16378906 52.47805664 310.89984375 51.55102539 311.65820312 C47.66199569 314.8446573 43.78278037 318.04303062 39.90258789 321.24023438 C34.26625626 325.88446292 28.62523027 330.52259899 22.96899414 335.14257812 C21.12072734 336.65326194 19.27463538 338.16660799 17.42993164 339.68164062 C16.4515332 340.48472656 15.47313477 341.2878125 14.46508789 342.11523438 C13.15217773 343.19417969 13.15217773 343.19417969 11.81274414 344.29492188 C10.6197168 345.25785156 10.6197168 345.25785156 9.40258789 346.24023438 C8.4106543 347.17222656 8.4106543 347.17222656 7.39868164 348.12304688 C5.40258789 349.24023438 5.40258789 349.24023438 2.94555664 348.68554688 C0.14510725 347.09389361 -1.94845054 345.33197643 -4.28491211 343.11523438 C-8.40277128 339.30195059 -12.630487 335.74294482 -17.03491211 332.26757812 C-21.6046902 328.65215918 -26.09250647 324.93591368 -30.59741211 321.24023438 C-32.30563568 319.84426672 -34.01397068 318.4484354 -35.72241211 317.05273438 C-39.1447663 314.25533182 -42.55827727 311.44776656 -45.96459961 308.63085938 C-46.72885254 307.99946045 -47.49310547 307.36806152 -48.28051758 306.7175293 C-49.80396981 305.45847389 -51.32645963 304.1982529 -52.84790039 302.93676758 C-53.54898926 302.35757568 -54.25007813 301.77838379 -54.97241211 301.18164062 C-55.59889648 300.66287354 -56.22538086 300.14410645 -56.87084961 299.60961914 C-58.38678989 298.40728472 -59.98751133 297.31350156 -61.59741211 296.24023438 C-61.81257435 293.45924801 -61.84698729 290.88634398 -61.75756836 288.11132812 C-61.73756497 286.4274434 -61.72084023 284.74351722 -61.70703125 283.05957031 C-61.69737335 282.17942261 -61.68771545 281.2992749 -61.67776489 280.39245605 C-61.57940863 265.43625103 -61.70666244 254.19403074 -71.27075195 242.12304688 C-73.788558 238.54974539 -75.33702094 234.52377922 -76.97241211 230.49023438 C-77.46173218 229.29587769 -77.46173218 229.29587769 -77.9609375 228.07739258 C-84.59741211 211.5146112 -84.59741211 211.5146112 -84.59741211 206.24023438 C-85.33991211 206.13582031 -86.08241211 206.03140625 -86.84741211 205.92382812 C-92.29663774 204.5692621 -96.131925 200.47528632 -99.15209961 195.86914062 C-105.3263805 184.15992747 -105.72072951 173.58032435 -102.44897461 160.93945312 C-101.59741211 158.24023438 -101.59741211 158.24023438 -100.43334961 156.32226562 C-98.55449848 151.64269715 -100.81740564 146.10053851 -102.0065918 141.39477539 C-109.05506107 113.48427023 -109.19451109 86.59172416 -94.83178711 61.10742188 C-91.67826592 56.00780878 -88.15463206 51.28505254 -84.40209961 46.61523438 C-82.36555206 43.93510253 -80.58953968 41.14375449 -78.78491211 38.30273438 C-64.5151616 16.80261315 -40.61295134 6.50814593 -16.31396484 0.69384766 C-10.93418308 -0.20447485 -5.44276931 0.01443865 0 0 Z " fill="#FED05B" transform="translate(251.597412109375,-0.240234375)"/>
<path d="M0 0 C1.71228113 17.39330577 3.22163055 34.80358608 4.71435547 52.21679688 C5.05965591 56.24365184 5.407861 60.27025032 5.75671577 64.29679871 C6.02753401 67.42793493 6.29643069 70.559234 6.564785 73.69058228 C6.69247544 75.17695032 6.82085448 76.66325938 6.94995499 78.14950562 C7.12897595 80.21278415 7.30529891 82.27627657 7.48095703 84.33984375 C7.63179245 86.09349243 7.63179245 86.09349243 7.78567505 87.88256836 C7.9726943 90.60282896 8.04242449 93.27493467 8 96 C6.95509903 96.00142502 5.91019806 96.00285004 4.83363342 96.00431824 C-5.03830758 96.0210249 -14.90983831 96.06391045 -24.78156185 96.13209057 C-29.85614307 96.16630646 -34.93042495 96.19146216 -40.00512695 96.19555664 C-44.90725788 96.19985116 -49.80871416 96.22840944 -54.71063423 96.27343178 C-56.57597479 96.28636996 -58.44139623 96.29072756 -60.30677605 96.28615379 C-74.06895499 95.90886153 -74.06895499 95.90886153 -86 102 C-91.433839 107.71249741 -92.40305539 112.16284295 -92.28027344 119.87548828 C-91.81772444 128.63111233 -90.08218221 137.30599925 -88.625 145.9375 C-88.1454353 148.83595999 -87.66879268 151.73489038 -87.19235229 154.63386536 C-86.88356379 156.51062091 -86.57345907 158.3871604 -86.26199341 160.26347351 C-85.23657956 166.46115343 -84.31481529 172.66406253 -83.45166016 178.88647461 C-82.55494258 185.06800937 -81.43456918 191.21502661 -80.32421875 197.36132812 C-80.15277344 198.35197266 -79.98132813 199.34261719 -79.8046875 200.36328125 C-79.64983887 201.23251221 -79.49499023 202.10174316 -79.33544922 202.99731445 C-78.89107352 206.97502679 -79 210.99754261 -79 215 C-109.36 215 -139.72 215 -171 215 C-171.061875 200.81 -171.12375 186.62 -171.1875 172 C-171.21481201 167.55144531 -171.24212402 163.10289062 -171.27026367 158.51953125 C-171.28381348 153.00585938 -171.28381348 153.00585938 -171.28633118 150.40893555 C-171.29087986 148.62961564 -171.30130731 146.85030383 -171.31672668 145.07104492 C-171.52401377 119.84847422 -166.71086237 96.7647982 -150 77 C-149.32066406 76.175 -148.64132813 75.35 -147.94140625 74.5 C-134.2547792 58.49567318 -115.02325241 50.89174962 -96.21429443 42.55099487 C-86.73020176 38.34411034 -77.29788087 34.02953412 -67.875 29.6875 C-64.75007867 28.24852703 -61.62502975 26.80983124 -58.5 25.37109375 C-57.72156738 25.01261856 -56.94313477 24.65414337 -56.14111328 24.2848053 C-47.39292505 20.25749728 -38.63452378 16.25257887 -29.875 12.25 C-29.14778748 11.91761322 -28.42057495 11.58522644 -27.67132568 11.24276733 C-26.96493958 10.91990753 -26.25855347 10.59704773 -25.53076172 10.2644043 C-24.84386261 9.95041183 -24.1569635 9.63641937 -23.44924927 9.31291199 C-22.12416235 8.70777555 -20.7987142 8.10342937 -19.47286987 7.49995422 C-16.53337174 6.16169567 -13.60029261 4.81230314 -10.67675781 3.43945312 C-9.69288086 2.97990234 -8.70900391 2.52035156 -7.6953125 2.046875 C-6.85242676 1.64823242 -6.00954102 1.24958984 -5.14111328 0.83886719 C-3 0 -3 0 0 0 Z " fill="#40596B" transform="translate(191,297)"/>
<path d="M0 0 C4.19031736 1.32334034 8.11910036 2.89469179 12.09375 4.765625 C13.86298828 5.59513672 13.86298828 5.59513672 15.66796875 6.44140625 C16.94532498 7.0442444 18.22266837 7.64710974 19.5 8.25 C20.83967862 8.87925793 22.17952552 9.5081577 23.51953125 10.13671875 C26.30143455 11.44197431 29.08260966 12.74876323 31.86328125 14.05664062 C38.23544443 17.05219736 44.61817576 20.02509893 51 23 C53.49881989 24.16510321 55.99751451 25.33047456 58.49609375 26.49609375 C59.11475815 26.78469772 59.73342255 27.0733017 60.37083435 27.37065125 C64.13272739 29.1263238 67.89242477 30.88660702 71.65042114 32.65060425 C74.16191108 33.82930753 76.67415026 35.00640822 79.18652344 36.18322754 C80.43340069 36.7676404 81.67998483 37.35267905 82.92626953 37.93835449 C89.85763706 41.19420371 96.81040403 44.37893923 103.83984375 47.41796875 C116.43262931 52.87609462 128.41275186 58.07349667 139 67 C139.74121094 67.56589844 140.48242188 68.13179688 141.24609375 68.71484375 C158.38530376 82.37943809 168.21319992 104.6613233 170.80686569 125.92591095 C171.49785472 133.34651265 171.23845704 140.85710052 171.1953125 148.30078125 C171.19236441 150.0150947 171.1903287 151.72940997 171.18920898 153.44372559 C171.17881036 159.73334488 171.15088821 166.02292539 171.125 172.3125 C171.08375 186.399375 171.0425 200.48625 171 215 C140.64 215 110.28 215 79 215 C79.6340565 205.48915246 80.3672534 196.49168258 81.9609375 187.171875 C82.24778915 185.44013031 82.24778915 185.44013031 82.54043579 183.67340088 C83.14518998 180.03109988 83.75975189 176.39054148 84.375 172.75 C84.77932923 170.32954114 85.1829794 167.90896875 85.5859375 165.48828125 C86.17598998 161.94584122 86.76609049 158.40341003 87.35710144 154.86112976 C87.90545831 151.57420666 88.4528528 148.28712465 89 145 C89.16078033 144.0372818 89.32156067 143.0745636 89.48721313 142.08267212 C89.91740279 139.4947598 90.34080453 136.90584108 90.76171875 134.31640625 C90.88336395 133.5906842 91.00500916 132.86496216 91.13034058 132.11724854 C93.3301852 119.03606355 93.3301852 119.03606355 90.15625 106.72265625 C86.51102091 102.11989416 82.7079922 98.77242691 77 97 C74.17805906 96.79472499 71.4516047 96.68899952 68.62963867 96.68115234 C67.79985504 96.67110672 66.97007141 96.6610611 66.11514282 96.65071106 C63.38275826 96.61991362 60.65047154 96.60285351 57.91796875 96.5859375 C56.01938538 96.56722309 54.1208103 96.54764947 52.22224426 96.5272522 C47.23284802 96.47595392 42.24342482 96.43631581 37.25390625 96.39910889 C32.15943749 96.35905484 27.06508066 96.30796887 21.97070312 96.2578125 C11.9805474 96.16108047 1.99032845 96.07666691 -8 96 C-8.24993051 85.52017529 -7.46821251 75.26746169 -6.50390625 64.84375 C-6.34893157 63.12556757 -6.19439357 61.40734571 -6.04026794 59.68908691 C-5.71849492 56.11530556 -5.39289469 52.54190209 -5.06420898 48.96875 C-4.64362421 44.39532547 -4.23062652 39.82125548 -3.82019138 35.2469101 C-3.50242482 31.71052896 -3.18178009 28.17441374 -2.86015129 24.63838196 C-2.70682522 22.95117422 -2.55413488 21.26390858 -2.40210152 19.57658386 C-2.18952809 17.22462171 -1.9733444 14.87301942 -1.75610352 12.52148438 C-1.69424362 11.83052673 -1.63238373 11.13956909 -1.56864929 10.42767334 C-1.2383385 6.89630049 -0.77228638 3.46259989 0 0 Z " fill="#40596B" transform="translate(321,297)"/>
<path d="M0 0 C2.17041428 -0.00956867 4.33982291 -0.04055875 6.51000977 -0.07226562 C19.75918869 -0.17435585 32.52560023 1.58351666 44.96508789 6.36523438 C45.75608887 6.66598877 46.54708984 6.96674316 47.36206055 7.27661133 C65.92390684 14.61584063 82.65531227 27.78839059 93.34008789 44.80273438 C95.5064959 48.21467942 97.79633304 50.59523869 100.90258789 53.17773438 C110.39641958 61.26743634 114.70589009 73.10089181 116.40258789 85.24023438 C117.08222537 98.13752255 115.86494922 110.46196913 113.68652344 123.16625977 C113.21411766 125.93341759 112.77069467 128.70414589 112.33032227 131.4765625 C110.54015425 142.42236609 108.05675226 152.76125571 104.40258789 163.24023438 C104.04011963 164.28783936 103.67765137 165.33544434 103.30419922 166.41479492 C101.50239652 171.56161775 99.90187649 173.95456968 95.40258789 177.24023438 C95.46317383 176.63550293 95.52375977 176.03077148 95.58618164 175.40771484 C95.86135131 172.64384714 96.13200626 169.87955486 96.40258789 167.11523438 C96.49797852 166.16390625 96.59336914 165.21257812 96.69165039 164.23242188 C96.95051813 161.56978225 97.18104983 158.90620082 97.40258789 156.24023438 C97.54567383 154.71269531 97.54567383 154.71269531 97.69165039 153.15429688 C97.24883644 148.69025353 95.48221577 144.8621811 93.77758789 140.74023438 C89.41860368 129.77702164 86.31778941 118.6571748 83.40258789 107.24023438 C82.68014629 104.46760458 81.94953345 101.69720619 81.21508789 98.92773438 C80.90700195 97.765 80.59891602 96.60226563 80.28149414 95.40429688 C79.13853628 91.28964856 77.81625841 87.26919537 76.40258789 83.24023438 C75.11288086 83.92859375 75.11288086 83.92859375 73.79711914 84.63085938 C65.87497109 88.77727324 58.12094111 92.06338081 49.40258789 94.24023438 C48.50926758 94.46582031 47.61594727 94.69140625 46.69555664 94.92382812 C9.04823668 102.73335802 -36.2769569 89.42432845 -69.59741211 72.24023438 C-69.57420898 73.03365234 -69.55100586 73.82707031 -69.52709961 74.64453125 C-69.39617971 82.57921201 -70.05858188 89.96241866 -71.59741211 97.74023438 C-71.92310181 99.41267212 -71.92310181 99.41267212 -72.25537109 101.11889648 C-74.59622502 112.37759446 -78.01995156 124.12344829 -83.70727539 134.20825195 C-87.8324621 141.87340726 -87.27192843 150.32837475 -87.34741211 158.80273438 C-87.37561514 160.39977135 -87.40554852 161.99677875 -87.43725586 163.59375 C-87.51060654 167.47585782 -87.56049239 171.35761617 -87.59741211 175.24023438 C-89.60252538 172.70818127 -91.11816836 170.37455158 -92.31616211 167.37695312 C-92.6087793 166.65443359 -92.90139648 165.93191406 -93.20288086 165.1875 C-93.49807617 164.44177734 -93.79327148 163.69605469 -94.09741211 162.92773438 C-94.69069963 161.45228791 -95.28444488 159.97702541 -95.87866211 158.50195312 C-96.30997437 157.41998657 -96.30997437 157.41998657 -96.75 156.31616211 C-97.52202999 154.42489992 -98.35170831 152.55743106 -99.18725586 150.69335938 C-100.71294311 146.95732745 -101.76443769 143.22569978 -102.65991211 139.30273438 C-102.91369629 138.19466431 -102.91369629 138.19466431 -103.17260742 137.06420898 C-109.3160055 109.27391452 -108.3115052 82.90570474 -93.09741211 58.30273438 C-90.38819871 54.2479651 -87.45545827 50.4149696 -84.40209961 46.61523438 C-82.36555206 43.93510253 -80.58953968 41.14375449 -78.78491211 38.30273438 C-64.5151616 16.80261315 -40.61295134 6.50814593 -16.31396484 0.69384766 C-10.93418308 -0.20447485 -5.44276931 0.01443865 0 0 Z " fill="#334A5D" transform="translate(251.597412109375,-0.240234375)"/>
<path d="M0 0 C3.85335832 1.63168522 6.76028252 4.214891 9.875 6.9375 C14.47213529 10.89667083 19.13982846 14.72413194 23.9375 18.4375 C29.44166999 22.70879733 34.7549372 27.16236161 40.0222168 31.72143555 C44.91217282 35.94806562 49.92402305 39.9987413 55 44 C56.87600798 45.49873916 58.75102468 46.99872005 60.625 48.5 C61.88183594 49.50546875 61.88183594 49.50546875 63.1640625 50.53125 C63.76992187 51.0159375 64.37578125 51.500625 65 52 C68.69969203 50.71119914 71.10898533 49.25659021 73.9375 46.5625 C77.71993283 43.08692017 81.62685253 39.8872382 85.6875 36.75 C90.57662245 32.960418 95.3304029 29.05686829 100 25 C105.23113304 20.45527863 110.59394408 16.13159686 116.07080078 11.88745117 C120.89981358 8.12717697 125.50245182 4.15249818 130 0 C130.99 0.495 130.99 0.495 132 1 C131.80906517 2.45698555 131.80906517 2.45698555 131.61427307 3.94340515 C130.37257049 13.55695401 129.37049177 23.17456274 128.52734375 32.83203125 C128.39832931 34.28499054 128.26905607 35.73792687 128.13954163 37.19084167 C127.803711 40.96571321 127.47124533 44.74087316 127.1395874 48.51611328 C126.80275931 52.34360349 126.46279832 56.17081525 126.12304688 59.99804688 C125.73999426 64.31492253 125.35723238 68.63182213 124.97679138 72.94892883 C124.7539668 75.47726034 124.5299971 78.0054913 124.30465698 80.53359985 C124.10601853 82.79371668 123.91406418 85.05443396 123.72976685 87.31576538 C123.64693451 88.30815216 123.56410217 89.30053894 123.47875977 90.32299805 C123.37507835 91.61429878 123.37507835 91.61429878 123.26930237 92.9316864 C123 95 123 95 122 97 C108.8 97 95.6 97 82 97 C84.4074686 92.98755234 86.56851376 90.07770243 89.6875 86.6875 C90.89986328 85.36298828 90.89986328 85.36298828 92.13671875 84.01171875 C92.75160156 83.34785156 93.36648438 82.68398438 94 82 C89.79538816 76.91942736 85.36886339 72.37849358 80.5 67.9375 C75.90045296 63.71427954 71.38538769 59.44629585 67 55 C63.04230364 56.60797932 60.31094244 59.34952654 57.32421875 62.3046875 C56.79480179 62.82507599 56.26538483 63.34546448 55.71992493 63.88162231 C54.60704659 64.98003406 53.49692348 66.08124348 52.3894043 67.18505859 C50.68787319 68.87462943 48.96857607 70.54465115 47.24804688 72.21484375 C46.16812728 73.28530591 45.08931169 74.35688322 44.01171875 75.4296875 C43.23534309 76.17676468 43.23534309 76.17676468 42.44328308 76.93893433 C40.84321832 78.50170087 40.84321832 78.50170087 39 81 C39.10073809 83.9591002 39.80354385 84.77893286 41.77734375 87 C42.49019531 87.66 43.20304687 88.32 43.9375 89 C46.86316106 91.7185816 48.15622721 93.31245442 50 97 C36.47 97 22.94 97 9 97 C7.8267914 87.02772689 6.67069405 77.12371674 5.88426208 67.12350464 C5.82607237 66.38883846 5.76788265 65.65417229 5.70792961 64.8972435 C5.64833628 64.14482502 5.58874294 63.39240654 5.52734375 62.6171875 C5.39840747 61.02154914 5.2691328 59.42593809 5.13954163 57.83035278 C4.80366178 53.68733705 4.47105306 49.5440668 4.1395874 45.4006958 C3.60643598 38.73734968 3.07024586 32.07425445 2.53009224 25.41147232 C2.34378173 23.1034709 2.16018153 20.79526506 1.97679138 18.48703003 C1.86216443 17.06670222 1.74742919 15.64638314 1.63256836 14.22607422 C1.53423203 12.99605682 1.43589569 11.76603943 1.33457947 10.49874878 C0.99790819 6.97812565 0.52816766 3.49657946 0 0 Z " fill="#F1F1F0" transform="translate(190,296)"/>
<path d="M0 0 C0.33 0 0.66 0 1 0 C1.27367932 5.3889947 1.47228109 10.77388358 1.60424805 16.16821289 C1.6592865 17.99900809 1.73415181 19.82932584 1.82983398 21.65844727 C2.60381374 36.84417831 2.60381374 36.84417831 -1.31738281 42.11499023 C-4.10751614 44.3979758 -6.88654572 46.19368495 -10 48 C-11.7315 49.36698984 -13.44335986 50.75962048 -15.125 52.1875 C-16.02476562 52.92355469 -16.92453125 53.65960938 -17.8515625 54.41796875 C-21.7405922 57.60442292 -25.61980752 60.80279625 -29.5 64 C-35.13633163 68.64422854 -40.77735762 73.28236462 -46.43359375 77.90234375 C-48.28186055 79.41302757 -50.12795252 80.92637362 -51.97265625 82.44140625 C-52.95105469 83.24449219 -53.92945313 84.04757812 -54.9375 84.875 C-56.25041016 85.95394531 -56.25041016 85.95394531 -57.58984375 87.0546875 C-58.78287109 88.01761719 -58.78287109 88.01761719 -60 89 C-60.66128906 89.62132812 -61.32257813 90.24265625 -62.00390625 90.8828125 C-64 92 -64 92 -66.45703125 91.4453125 C-69.25748064 89.85365923 -71.35103843 88.09174205 -73.6875 85.875 C-77.80535917 82.06171621 -82.03307489 78.50271044 -86.4375 75.02734375 C-91.00727809 71.4119248 -95.49509436 67.69567931 -100 64 C-101.70822358 62.60403235 -103.41655857 61.20820102 -105.125 59.8125 C-108.54735419 57.01509744 -111.96086516 54.20753218 -115.3671875 51.390625 C-116.13144043 50.75922607 -116.89569336 50.12782715 -117.68310547 49.47729492 C-119.2065577 48.21823951 -120.72904752 46.95801853 -122.25048828 45.6965332 C-122.95157715 45.11734131 -123.65266602 44.53814941 -124.375 43.94140625 C-125.00148437 43.42263916 -125.62796875 42.90387207 -126.2734375 42.36938477 C-127.78937778 41.16705035 -129.39009922 40.07326719 -131 39 C-131.26660183 36.09165115 -131.34779124 33.39861732 -131.29296875 30.4921875 C-131.28660149 29.23125778 -131.28660149 29.23125778 -131.28010559 27.94485474 C-131.26328532 25.25458007 -131.22562781 22.56504901 -131.1875 19.875 C-131.17245745 18.05339622 -131.1587683 16.23178072 -131.14648438 14.41015625 C-131.11337094 9.93981676 -131.06156637 5.47003454 -131 1 C-127.49214744 4.45023986 -124.47521695 7.90724347 -121.5625 11.875 C-111.01003517 25.86230026 -98.27907107 41.99385762 -80 45 C-75.46093999 45.24680999 -70.92011045 45.23116016 -66.375 45.25 C-65.15425781 45.270625 -63.93351562 45.29125 -62.67578125 45.3125 C-47.77783794 45.37623452 -36.52801204 41.66245972 -25.8125 31.125 C-24.19356841 29.43065234 -22.58816821 27.72321653 -21 26 C-20.40703125 25.36320312 -19.8140625 24.72640625 -19.203125 24.0703125 C-12.80120823 16.96723341 -6.86692149 9.30418434 -1.234375 1.578125 C-0.82703125 1.05734375 -0.4196875 0.5365625 0 0 Z " fill="#E6AD4F" transform="translate(321,257)"/>
<path d="M0 0 C0.66 0.33 1.32 0.66 2 1 C2.90678635 3.72283508 3.20035504 6.42277487 3.43310547 9.27319336 C3.53874313 10.53700836 3.53874313 10.53700836 3.64651489 11.82635498 C3.75574783 13.19428192 3.75574783 13.19428192 3.8671875 14.58984375 C3.94653534 15.55037659 4.02588318 16.51090942 4.1076355 17.50054932 C4.36665724 20.64594388 4.62092741 23.79170211 4.875 26.9375 C5.05215256 29.1039435 5.22956326 31.2703659 5.40722656 33.43676758 C5.76713063 37.83204701 6.12504759 42.22748178 6.48144531 46.62304688 C6.88562946 51.60354179 7.29508877 56.58357418 7.7081604 61.56333923 C7.99117922 64.97580381 8.27244928 68.38841094 8.55328369 71.80105591 C8.68371387 73.38335649 8.81468926 74.96561223 8.94622803 76.54782104 C9.12759257 78.73354633 9.30634164 80.91946996 9.484375 83.10546875 C9.58459961 84.32387451 9.68482422 85.54228027 9.78808594 86.79760742 C9.96867881 89.5266819 10 92.2649568 10 95 C-2.87 95 -15.74 95 -29 95 C-29.66 93.68 -30.32 92.36 -31 91 C-32.83425262 89.30849588 -32.83425262 89.30849588 -35.03515625 87.79296875 C-35.84533203 87.20580078 -36.65550781 86.61863281 -37.49023438 86.01367188 C-38.33908203 85.41103516 -39.18792969 84.80839844 -40.0625 84.1875 C-41.72094036 82.99472368 -43.3784952 81.80071515 -45.03515625 80.60546875 C-46.25936279 79.7244751 -46.25936279 79.7244751 -47.50830078 78.82568359 C-51.40603893 75.96978649 -55.20784851 72.99404452 -59 70 C-56.54189865 65.5005688 -53.44031727 61.87669314 -50.0625 58.0625 C-48.89150795 56.72692987 -47.72094489 55.3909835 -46.55078125 54.0546875 C-45.95861816 53.38018555 -45.36645508 52.70568359 -44.75634766 52.01074219 C-42.0613072 48.92534419 -39.40696672 45.80566791 -36.75 42.6875 C-32.57106918 37.79574081 -28.32038806 32.97879433 -24 28.2109375 C-18.81543028 22.47955769 -13.78939881 16.60881938 -8.75 10.75 C-8.23010498 10.14704102 -7.71020996 9.54408203 -7.17456055 8.92285156 C-4.68002466 6.01613973 -2.24570078 3.10706547 0 0 Z " fill="#334A5E" transform="translate(189,298)"/>
<path d="M0 0 C6.85243506 6.77953681 13.33367595 13.86178973 19.375 21.375 C22.76385969 25.578144 26.31239266 29.56203177 30 33.5 C34.49584058 38.3014587 38.72536713 43.24194309 42.84375 48.375 C45.04786569 51.05827127 47.34410892 53.62539242 49.6875 56.1875 C53.41124918 60.27055831 56.79502396 64.50046501 60 69 C55.34968747 74.04524353 49.92126279 77.9675067 44.4375 82.0625 C42.55904601 83.46717896 40.68266542 84.87463587 38.80859375 86.28515625 C37.56807251 87.21146851 37.56807251 87.21146851 36.30249023 88.15649414 C33.93901196 89.90920331 33.93901196 89.90920331 32.2434082 92.20776367 C28.86328102 94.9081134 25.43028703 94.49590411 21.296875 94.390625 C20.45908508 94.38496521 19.62129517 94.37930542 18.75811768 94.37347412 C16.08815834 94.35112329 13.41955213 94.30093098 10.75 94.25 C8.93751941 94.22993325 7.12501774 94.21168278 5.3125 94.1953125 C0.87448041 94.15126294 -3.56253056 94.08224566 -8 94 C-8.25074721 83.49771459 -7.46677041 73.21995181 -6.50390625 62.7734375 C-6.34895836 61.0504613 -6.19441971 59.32744825 -6.04026794 57.60440063 C-5.71854533 54.02222294 -5.39291068 50.44043061 -5.06420898 46.85888672 C-4.64299811 42.26738069 -4.23025467 37.67516087 -3.82019138 33.08264732 C-3.50300192 29.53771636 -3.18217425 25.99312235 -2.86015129 22.44862747 C-2.70650591 20.7542132 -2.5538161 19.05971199 -2.40210152 17.36512375 C-2.19035819 15.00788259 -1.97390633 12.65112155 -1.75610352 10.29443359 C-1.69424362 9.5962854 -1.63238373 8.89813721 -1.56864929 8.17883301 C-1.2957726 5.27393861 -0.92725356 2.78176067 0 0 Z " fill="#344A5E" transform="translate(321,299)"/>
<path d="M0 0 C3.50785256 3.45023986 6.52478305 6.90724347 9.4375 10.875 C13.42224559 16.17050702 17.68518803 21.1378635 22.1875 26 C22.75718506 26.62245605 23.32687012 27.24491211 23.91381836 27.88623047 C26.73730901 30.89268364 29.52172026 33.47183378 32.92578125 35.8125 C33.94027344 36.534375 34.95476562 37.25625 36 38 C36 38.66 36 39.32 36 40 C38.27729713 41.82674171 40.56960128 43.54726904 42.9375 45.25 C48.98430313 49.68500095 54.86278625 54.26352198 60.625 59.0625 C67.97773109 65.1815855 75.44491945 71.13313872 83 77 C79.56846086 80.53191322 76.02624938 83.7137505 72.1875 86.8125 C71.21167969 87.60269531 70.23585938 88.39289063 69.23046875 89.20703125 C68.49441406 89.79871094 67.75835937 90.39039063 67 91 C62.93039841 89.63146141 60.41541717 87.81892472 57.3125 84.875 C53.19464083 81.06171621 48.96692511 77.50271044 44.5625 74.02734375 C39.99272191 70.4119248 35.50490564 66.69567931 31 63 C29.29177642 61.60403235 27.58344143 60.20820102 25.875 58.8125 C22.45264581 56.01509744 19.03913484 53.20753218 15.6328125 50.390625 C14.86855957 49.75922607 14.10430664 49.12782715 13.31689453 48.47729492 C11.7934423 47.21823951 10.27095248 45.95801853 8.74951172 44.6965332 C8.04842285 44.11734131 7.34733398 43.53814941 6.625 42.94140625 C5.99851563 42.42263916 5.37203125 41.90387207 4.7265625 41.36938477 C3.21062222 40.16705035 1.60990078 39.07326719 0 38 C-0.26660183 35.09165115 -0.34779124 32.39861732 -0.29296875 29.4921875 C-0.28660149 28.23125778 -0.28660149 28.23125778 -0.28010559 26.94485474 C-0.26328532 24.25458007 -0.22562781 21.56504901 -0.1875 18.875 C-0.17245745 17.05339622 -0.1587683 15.23178072 -0.14648438 13.41015625 C-0.11337094 8.93981676 -0.06156637 4.47003454 0 0 Z " fill="#F7B64C" transform="translate(190,258)"/>
<path d="M0 0 C6.58839352 -0.43845701 11.67644853 1.41542356 17.04296875 5.2265625 C22.09355832 10.57364417 24.19983431 14.61894158 24.29296875 21.9765625 C24.31875 23.18828125 24.34453125 24.4 24.37109375 25.6484375 C23.90786513 30.69983532 22.15490121 34.79336323 18.23046875 38.1015625 C14.70565014 40.45144157 13.18030826 40.96208952 9.04296875 40.2265625 C7.16796875 38.7265625 7.16796875 38.7265625 6.04296875 37.2265625 C5.44484375 37.5359375 4.84671875 37.8453125 4.23046875 38.1640625 C0.00518987 40.21634081 -3.28126723 40.62281369 -7.95703125 40.2265625 C-11.31437469 38.51621773 -13.3599223 37.20364987 -15.33203125 33.9765625 C-16.8497234 27.29871704 -16.38394119 22.19601852 -12.95703125 16.2265625 C-6.29022128 9.37456336 -6.29022128 9.37456336 -1.86328125 9.09375 C-1.06921875 9.09632813 -0.27515625 9.09890625 0.54296875 9.1015625 C1.7340625 9.09769531 1.7340625 9.09769531 2.94921875 9.09375 C5.04296875 9.2265625 5.04296875 9.2265625 7.04296875 10.2265625 C9.37595535 10.26678641 11.71003541 10.26976497 14.04296875 10.2265625 C8.23787027 6.24592354 1.87199207 6.24514597 -4.95703125 7.2265625 C-11.13456255 9.61436376 -15.26938598 13.81046477 -18.14453125 19.73046875 C-19.83661996 24.92876051 -19.99976727 30.176005 -18.22265625 35.375 C-16.22515933 39.25538336 -13.89823396 41.45302128 -9.95703125 43.2265625 C-2.38971863 45.44672447 3.93531276 44.32808511 11.04296875 41.2265625 C11.53796875 43.7015625 11.53796875 43.7015625 12.04296875 46.2265625 C6.29678666 50.94664064 0.0649588 50.81155915 -7.1796875 50.62890625 C-12.70979487 50.03986689 -16.10783008 48.18407453 -19.95703125 44.2265625 C-24.93715665 37.83901035 -26.60889298 32.26619048 -25.95703125 24.2265625 C-24.57263482 15.50942896 -18.91050633 8.96132545 -11.98828125 3.7421875 C-8.02222846 1.34168186 -4.50989537 0.52210366 0 0 Z " fill="#F0F0F1" transform="translate(255.95703125,454.7734375)"/>
<path d="M0 0 C2.80428566 1.27505242 4.81604371 2.57977124 6.953125 4.79296875 C7.75266602 5.60979126 7.75266602 5.60979126 8.56835938 6.44311523 C9.12330078 7.01876221 9.67824219 7.59440918 10.25 8.1875 C14.41984895 12.44665282 18.59422778 16.56665403 23.21875 20.33984375 C25.74309537 22.69257792 27.8246634 25.32180306 30 28 C29.22914063 28.83144531 28.45828125 29.66289062 27.6640625 30.51953125 C26.6509335 31.61708767 25.63791863 32.71474944 24.625 33.8125 C24.11710937 34.35970703 23.60921875 34.90691406 23.0859375 35.47070312 C20.84783697 37.90022015 18.83620888 40.24568668 17 43 C11.91736378 43.9026483 6.71786091 43.88089488 1.5625 43.9375 C0.82724091 43.94801392 0.09198181 43.95852783 -0.66555786 43.96936035 C-15.84499303 44.05215841 -15.84499303 44.05215841 -21.13110352 38.89672852 C-23.97903615 35.30687511 -26.38649576 31.60073635 -27 27 C-25.13629518 24.68898294 -23.32307046 22.74245126 -21.19140625 20.703125 C-20.59069809 20.10949158 -19.98998993 19.51585815 -19.37107849 18.90423584 C-17.4462785 17.00746548 -15.50484123 15.12878765 -13.5625 13.25 C-12.25602948 11.96860103 -10.95067569 10.68606239 -9.64648438 9.40234375 C-6.44380694 6.25484952 -3.2260982 3.12347689 0 0 Z " fill="#FE7159" transform="translate(255,350)"/>
<path d="M0 0 C3.44981203 2.72679753 4.61672826 6.52089115 6.125 10.5 C6.38925781 11.17675781 6.65351563 11.85351562 6.92578125 12.55078125 C8.92113548 17.686033 10.1133987 21.81264419 10.375 27.3125 C10.78233379 33.74303183 11.88204499 39.77946088 13.37890625 46.0390625 C14 49 14 49 14 53 C8.1041473 52.17089571 4.90458616 49.35511533 1 45 C-5.13138805 35.64886294 -7.47832312 24.92826713 -5.4296875 13.94140625 C-4.2188201 8.73467645 -2.93887479 4.51121396 0 0 Z " fill="#F6B54C" transform="translate(153,153)"/>
<path d="M0 0 C0.66 0 1.32 0 2 0 C7.90041158 12.15759223 8.26945023 24.17618028 4 37 C1.14671714 42.81566182 -2.61291648 47.40861099 -8 51 C-9.9896995 51.39013716 -11.99019869 51.73202649 -14 52 C-13.79503906 50.83984375 -13.59007812 49.6796875 -13.37890625 48.484375 C-13.10562454 46.9064481 -12.83357323 45.3283078 -12.5625 43.75 C-12.42126709 42.93184814 -12.28003418 42.11369629 -12.13452148 41.27075195 C-11.19753039 35.66916279 -10.62697847 30.16640541 -10.50390625 24.48046875 C-10 22 -10 22 -8.16796875 19.7265625 C-5.32455216 16.15051785 -4.16355996 12.48948223 -2.75 8.1875 C-2.481875 7.39923828 -2.21375 6.61097656 -1.9375 5.79882812 C-1.28251673 3.8689667 -0.63998468 1.93488703 0 0 Z " fill="#F6B54C" transform="translate(358,154)"/>
<path d="M0 0 C3.06206985 1.39122995 5.41445717 3.03172076 7.9375 5.25 C8.58589844 5.81203125 9.23429687 6.3740625 9.90234375 6.953125 C12.46218048 9.45099175 14.71031336 12.25237603 17 15 C7.43 15 -2.14 15 -12 15 C-9.5925314 10.98755234 -7.43148624 8.07770243 -4.3125 4.6875 C-3.50425781 3.80449219 -2.69601562 2.92148437 -1.86328125 2.01171875 C-1.24839844 1.34785156 -0.63351562 0.68398438 0 0 Z " fill="#FEFDFC" transform="translate(284,378)"/>
<path d="M0 0 C3.375 0.6875 3.375 0.6875 4.375 1.6875 C4.50013552 7.01469782 4.23912177 11.39131735 1.25 15.875 C-2.33507525 18.13515614 -4.45910081 18.2377131 -8.625 17.6875 C-11.00724928 15.30525072 -10.94517149 14.6372963 -11 11.375 C-10.9279978 7.92997174 -10.68480638 6.78442758 -8.8125 3.75 C-4.43016994 -0.3819112 -4.43016994 -0.3819112 0 0 Z " fill="#CDD6E0" transform="translate(258.625,470.3125)"/>
<path d="M0 0 C3.34123474 1.4533622 5.56541965 3.29595516 8.125 5.875 C8.80820313 6.55304688 9.49140625 7.23109375 10.1953125 7.9296875 C12 10 12 10 14 14 C5.42 14 -3.16 14 -12 14 C-8.03452577 8.71270103 -4.67560604 4.45295813 0 0 Z " fill="#FEFDFC" transform="translate(226,379)"/>
<path d="M0 0 C0.66 0 1.32 0 2 0 C3.93773248 3.2603118 4.27072187 5.72861936 4.25 9.5 C4.25515625 10.4384375 4.2603125 11.376875 4.265625 12.34375 C3.99063617 15.09363829 3.5704224 16.73276766 2 19 C-1.125 19.75 -1.125 19.75 -4 20 C-4.23848104 15.15585388 -3.39796502 11.25575912 -2 6.625 C-1.62875 5.37976563 -1.2575 4.13453125 -0.875 2.8515625 C-0.58625 1.91054688 -0.2975 0.96953125 0 0 Z " fill="#CED7E0" transform="translate(271,467)"/>
</svg>
